<svg width="20" height="20" viewBox="0 0 20 20" fill="none" xmlns="http://www.w3.org/2000/svg">
<path fill-rule="evenodd" clip-rule="evenodd" d="M13.6821 2.16852C13.6439 1.88474 13.4026 1.66602 13.1105 1.66602C12.7919 1.66602 12.5336 1.92632 12.5336 2.24741V2.88997H7.47342V2.24741L7.46815 2.16852C7.42995 1.88474 7.18857 1.66602 6.8965 1.66602C6.57788 1.66602 6.31958 1.92632 6.31958 2.24741V2.90441C3.95545 3.06725 2.5 4.59907 2.5 7.07061V14.0858C2.5 16.7385 4.13195 18.3325 6.74688 18.3325H13.253C15.8711 18.3325 17.4999 16.7652 17.4999 14.1445V7.07061C17.5075 4.59817 16.0567 3.06677 13.6874 2.90434V2.24741L13.6821 2.16852ZM12.5336 4.0529V4.7984L12.5388 4.8773C12.577 5.16107 12.8184 5.3798 13.1105 5.3798C13.4291 5.3798 13.6874 5.1195 13.6874 4.7984V4.07009C15.4112 4.21352 16.3516 5.25156 16.346 7.06896V7.40576H3.65377V7.07075C3.65377 5.25446 4.59932 4.21422 6.31958 4.07019V4.7984L6.32485 4.8773C6.36305 5.16107 6.60443 5.3798 6.8965 5.3798C7.21513 5.3798 7.47342 5.1195 7.47342 4.7984V4.0529H12.5336ZM3.65377 8.56855V14.086C3.65377 16.0881 4.76119 17.1698 6.7468 17.1698H13.253C15.2454 17.1698 16.346 16.1108 16.346 14.1446L16.346 8.56855H3.65377ZM14.0009 11.0145C14.0009 10.6934 13.7426 10.4331 13.424 10.4331L13.3386 10.4384C13.057 10.4769 12.84 10.7202 12.84 11.0145C12.84 11.3356 13.0983 11.5959 13.424 11.5959L13.5023 11.5906C13.7839 11.5521 14.0009 11.3088 14.0009 11.0145ZM10.0107 10.4331C10.3293 10.4331 10.5876 10.6934 10.5876 11.0145C10.5876 11.3088 10.3706 11.5521 10.089 11.5906L10.0107 11.5959C9.68497 11.5959 9.42668 11.3356 9.42668 11.0145C9.42668 10.7202 9.64372 10.4769 9.92531 10.4384L10.0107 10.4331ZM7.16703 11.0145C7.16703 10.6934 6.90873 10.4331 6.59011 10.4331L6.5047 10.4384C6.2231 10.4769 6.00606 10.7202 6.00606 11.0145C6.00606 11.3356 6.26436 11.5959 6.58298 11.5959L6.66839 11.5906C6.94999 11.5521 7.16703 11.3088 7.16703 11.0145ZM13.424 13.4458C13.7426 13.4458 14.0009 13.7061 14.0009 14.0272C14.0009 14.3215 13.7839 14.5648 13.5023 14.6033L13.424 14.6086C13.0983 14.6086 12.84 14.3483 12.84 14.0272C12.84 13.7329 13.057 13.4896 13.3386 13.4511L13.424 13.4458ZM10.5876 14.0272C10.5876 13.7061 10.3293 13.4458 10.0107 13.4458L9.92531 13.4511C9.64372 13.4896 9.42668 13.7329 9.42668 14.0272C9.42668 14.3483 9.68497 14.6086 10.0107 14.6086L10.089 14.6033C10.3706 14.5648 10.5876 14.3215 10.5876 14.0272ZM6.59011 13.4458C6.90873 13.4458 7.16703 13.7061 7.16703 14.0272C7.16703 14.3215 6.94999 14.5648 6.66839 14.6033L6.58298 14.6086C6.26436 14.6086 6.00606 14.3483 6.00606 14.0272C6.00606 13.7329 6.2231 13.4896 6.5047 13.4511L6.59011 13.4458Z" fill="white"/>
</svg>
