<svg width="20" height="20" viewBox="0 0 20 20" fill="none" xmlns="http://www.w3.org/2000/svg">
<path d="M9.57699 2.32422H6.46116C3.89866 2.32422 2.29199 4.13839 2.29199 6.70672V13.6351C2.29199 16.2034 3.89116 18.0176 6.46116 18.0176H13.8145C16.3853 18.0176 17.9845 16.2034 17.9845 13.6351V10.2784" stroke="white" stroke-width="1.25" stroke-linecap="round" stroke-linejoin="round"/>
<path fill-rule="evenodd" clip-rule="evenodd" d="M7.35701 9.10074L13.5845 2.87324C14.3603 2.09824 15.6178 2.09824 16.3937 2.87324L17.4078 3.88741C18.1837 4.66324 18.1837 5.92158 17.4078 6.69658L11.1503 12.9541C10.8112 13.2932 10.3512 13.4841 9.87118 13.4841H6.74951L6.82785 10.3341C6.83951 9.87074 7.02868 9.42908 7.35701 9.10074Z" stroke="white" stroke-width="1.25" stroke-linecap="round" stroke-linejoin="round"/>
<path d="M12.6382 3.83545L16.4432 7.64045" stroke="white" stroke-width="1.25" stroke-linecap="round" stroke-linejoin="round"/>
</svg>
