<svg width="54" height="54" viewBox="0 0 54 54" fill="none" xmlns="http://www.w3.org/2000/svg">
<circle cx="27" cy="27" r="27" fill="#1D1F36"/>
<path fill-rule="evenodd" clip-rule="evenodd" d="M23.1929 26.2375L30.5424 18.9002C31.746 17.6999 33.6966 17.6999 34.9001 18.9002L36.0972 20.0953C37.3009 21.297 37.3009 23.246 36.0972 24.4464L28.7126 31.8188C28.1739 32.3566 27.4434 32.6589 26.6815 32.6589H22.9975C22.583 32.6589 22.2498 32.3179 22.2602 31.9042L22.3526 28.1927C22.3711 27.4577 22.6719 26.7577 23.1929 26.2375ZM35.0542 21.1367L33.8576 19.9421C33.23 19.3162 32.2125 19.3162 31.5852 19.9418L30.9806 20.5454L34.4496 24.0086L35.0544 23.4047C35.6816 22.7792 35.6816 21.7632 35.0542 21.1367ZM33.4065 25.05L29.9375 21.5868L24.236 27.2789C23.9826 27.5319 23.8363 27.8724 23.8273 28.2296L23.753 31.1853L26.6815 31.1862C27.0057 31.1862 27.3183 31.0736 27.567 30.8701L27.6695 30.7774L33.4065 25.05ZM26.3348 18.0379C26.7422 18.0379 27.0724 18.3676 27.0724 18.7743C27.0724 19.147 26.7949 19.4551 26.4349 19.5039L26.3348 19.5106H22.6577C20.1779 19.5106 18.5717 21.1529 18.4794 23.7032L18.4752 23.9376V32.1003C18.4752 34.7086 20.0033 36.4241 22.4343 36.5228L22.6577 36.5273H31.3356C33.8216 36.5273 35.4229 34.8885 35.515 32.335L35.5192 32.1003V28.1456C35.5192 27.7389 35.8494 27.4092 36.2567 27.4092C36.6301 27.4092 36.9387 27.6863 36.9876 28.0457L36.9943 28.1456V32.1003C36.9943 35.4994 34.8376 37.8894 31.5657 37.9963L31.3356 38H22.6577C19.3353 38 17.1032 35.6871 17.0035 32.3358L17 32.1003V23.9376C17 20.5418 19.1623 18.1487 22.4281 18.0416L22.6577 18.0379H26.3348Z" fill="white"/>
</svg>
