<svg width="23" height="22" viewBox="0 0 23 22" fill="none" xmlns="http://www.w3.org/2000/svg">
<circle cx="11.7618" cy="11.1218" r="10.8781" fill="#04CE00"/>
<path d="M14.204 9.96284L13.9122 10.2547C12.3502 11.8167 10.7882 13.3787 9.22592 14.941C8.90989 15.257 8.53649 15.3262 8.16354 15.1536C7.80425 14.9847 7.60707 14.6755 7.65944 14.3016C7.70649 14.0315 7.83393 13.7819 8.0251 13.5853C9.53557 12.0475 11.0656 10.5293 12.5898 9.00519L12.8785 8.71648C12.7853 8.70056 12.6914 8.68961 12.597 8.6837C11.9859 8.68096 11.3744 8.68688 10.7637 8.67914C10.2801 8.67368 9.94632 8.3408 9.93994 7.87814C9.93357 7.37359 10.2364 7.03525 10.7423 7.03206C12.1479 7.02295 13.5527 7.02189 14.9568 7.02887C15.5246 7.03206 15.8443 7.33898 15.8548 7.90046C15.8806 9.2942 15.8959 10.6881 15.9008 12.0821C15.9026 12.5931 15.5702 12.8936 15.0624 12.8895C14.5834 12.885 14.2683 12.5771 14.2537 12.0808C14.2382 11.4915 14.2368 10.9018 14.2282 10.3121C14.2264 10.2192 14.2145 10.1281 14.204 9.96284Z" fill="white"/>
</svg>
