<svg width="30" height="30" viewBox="0 0 30 30" fill="none" xmlns="http://www.w3.org/2000/svg">
<path d="M17.5 13.75V20" stroke="white" stroke-width="1.875" stroke-linecap="round"/>
<path d="M12.5 13.75V20" stroke="white" stroke-width="1.875" stroke-linecap="round"/>
<path d="M22.6466 7.62214C23.7151 8.41798 24.4718 8.98251 25.0354 9.47734C25.5887 9.96305 25.9028 10.3374 26.1104 10.7275C26.5373 11.5297 26.5625 12.4474 26.5625 14.939V16.8032C26.5625 19.3552 26.5598 21.1594 26.345 22.5263C26.1372 23.8494 25.7487 24.6318 25.0599 25.2212C24.35 25.8286 23.3727 26.1862 21.7508 26.3728C20.115 26.561 17.969 26.5625 15 26.5625C12.031 26.5625 9.88503 26.561 8.24921 26.3728C6.62729 26.1862 5.64998 25.8286 4.94013 25.2212C4.25134 24.6318 3.86284 23.8494 3.65496 22.5263C3.4402 21.1594 3.4375 19.3552 3.4375 16.8032L3.4375 14.9389C3.4375 12.4474 3.46267 11.5297 3.88957 10.7275C4.09715 10.3374 4.41135 9.96305 4.96456 9.47734C5.52818 8.98251 6.28494 8.41798 7.35345 7.62214C9.32741 6.1519 10.7426 5.09981 11.9528 4.40586C13.1388 3.72583 14.0497 3.4375 15 3.4375C15.9503 3.4375 16.8612 3.72583 18.0472 4.40586C19.2574 5.09981 20.6726 6.1519 22.6466 7.62214Z" stroke="white" stroke-width="1.875"/>
</svg>
