<svg width="16" height="16" viewBox="0 0 16 16" fill="none" xmlns="http://www.w3.org/2000/svg">
<path fill-rule="evenodd" clip-rule="evenodd" d="M5.68791 1.95789C7.14448 1.11156 8.93485 1.12635 10.3778 1.99664C11.8065 2.88465 12.6748 4.46949 12.6667 6.17434C12.6335 7.868 11.7024 9.46004 10.5385 10.6908C9.86672 11.4043 9.11524 12.0353 8.29939 12.5707C8.21537 12.6193 8.12333 12.6518 8.02782 12.6667C7.9359 12.6628 7.84637 12.6356 7.76733 12.5877C6.52178 11.7831 5.42905 10.7561 4.54172 9.55601C3.79922 8.55428 3.37739 7.34404 3.3335 6.08965C3.33253 4.38154 4.23134 2.80422 5.68791 1.95789ZM6.52953 6.79658C6.77454 7.40062 7.35288 7.79462 7.99449 7.79462C8.41482 7.79764 8.81888 7.62928 9.11663 7.32704C9.41438 7.02481 9.58108 6.61382 9.57959 6.18565C9.58183 5.53208 9.19706 4.9416 8.60493 4.68991C8.0128 4.43821 7.33012 4.57496 6.87563 5.03629C6.42115 5.49762 6.28452 6.19254 6.52953 6.79658Z" fill="white"/>
<ellipse opacity="0.4" cx="8.00008" cy="14" rx="3.33333" ry="0.666667" fill="white"/>
</svg>
