<svg width="30" height="30" viewBox="0 0 30 30" fill="none" xmlns="http://www.w3.org/2000/svg">
<path fill-rule="evenodd" clip-rule="evenodd" d="M15.0451 2.5H14.956C10.7446 2.5 6.88318 5.5557 6.50856 9.6012C6.48358 9.8906 6.46655 10.1863 6.45555 10.5049L6.44016 11.2497L6.43711 11.9174L6.45591 11.8413C6.28211 12.6888 5.88156 13.4749 5.29567 14.1172L5.2117 14.2252C4.71005 14.9873 4.4218 15.8694 4.37719 16.7802L4.37613 17.078C4.35052 18.276 4.76102 19.4614 5.53329 20.4029C6.58055 21.5087 7.9362 22.1683 9.3912 22.3082C13.1125 22.7124 16.8775 22.7124 20.6092 22.3072C22.0542 22.1742 23.4139 21.5126 24.4173 20.4477C25.1749 19.5414 25.5883 18.4537 25.6238 17.3275L25.625 16.8234C25.5835 15.8725 25.2935 14.9896 24.7858 14.2308L24.7087 14.1318L24.5203 13.9103C24.097 13.3816 23.7879 12.7725 23.612 12.1211L23.5563 11.8872L23.5447 11.6419C23.5413 11.5316 23.5396 11.4092 23.539 11.2565L23.5389 10.4151C23.536 10.0932 23.5264 9.86436 23.5042 9.60671C23.1168 5.55357 19.2543 2.5 15.0451 2.5ZM14.956 4.24419H15.0451C18.417 4.24419 21.493 6.67594 21.7884 9.76658C21.8059 9.96948 21.8137 10.1631 21.816 10.4506L21.8194 11.5814C21.8232 11.7623 21.8302 11.9127 21.8424 12.0819L21.8585 12.1977L21.9396 12.5425C22.18 13.4544 22.6117 14.3051 23.2059 15.0386L23.3782 15.2407L23.3592 15.209C23.6888 15.7016 23.8766 16.2732 23.9028 16.8627L23.9019 17.067C23.9218 17.8871 23.6499 18.6663 23.1355 19.2833C22.4557 20.0025 21.4839 20.4753 20.4392 20.5715C16.8159 20.9649 13.1741 20.9649 9.5646 20.5729C8.50853 20.4713 7.53602 19.9981 6.81711 19.2413C6.35108 18.6695 6.0821 17.8928 6.09899 17.0968L6.09919 16.8234L6.12103 16.5853C6.17362 16.1869 6.30673 15.7831 6.51306 15.4114L6.61769 15.2382C7.38474 14.3755 7.91115 13.3264 8.14301 12.1958L8.16099 12.0186L8.16915 10.8695L8.18922 10.2865C8.19832 10.1026 8.20998 9.92785 8.22459 9.75847C8.51004 6.67608 11.5831 4.24419 14.956 4.24419ZM6.61769 15.2382C6.59914 15.2591 6.58045 15.2798 6.56162 15.3005L6.6232 15.2291L6.61769 15.2382ZM18.2599 24.6133C17.8892 24.3114 17.3469 24.3708 17.0486 24.7461C16.9194 24.9088 16.7697 25.0547 16.6032 25.1803C16.0384 25.6233 15.3336 25.8205 14.633 25.7371C13.9334 25.6537 13.2974 25.2976 12.8659 24.7493C12.5694 24.3726 12.0274 24.3106 11.6552 24.6107C11.2831 24.9108 11.2217 25.4595 11.5182 25.8362C12.2338 26.7453 13.2822 27.3324 14.4316 27.4693C15.58 27.6061 16.7364 27.2825 17.6459 26.5688C17.9159 26.3652 18.1707 26.1168 18.3912 25.8394C18.6894 25.4641 18.6307 24.9152 18.2599 24.6133Z" fill="white"/>
</svg>
