<svg width="15" height="18" viewBox="0 0 15 18" fill="none" xmlns="http://www.w3.org/2000/svg">
<path d="M12.7715 1.48407C11.9519 0.549911 10.4704 0.149414 8.57506 0.149414H3.07434C2.88682 0.149421 2.70544 0.216323 2.56284 0.338091C2.42023 0.459859 2.32573 0.628507 2.29634 0.813712L0.00594362 15.34C-0.039582 15.6264 0.182223 15.8858 0.472552 15.8858H3.86851L4.72138 10.4762L4.69491 10.6456C4.75567 10.2632 5.0827 9.98119 5.46996 9.98119H7.08371C10.2539 9.98119 12.7362 8.69353 13.4614 4.96861C13.4829 4.85844 13.5015 4.75121 13.5177 4.64646C13.4261 4.59799 13.4261 4.59799 13.5177 4.64646C13.7336 3.26969 13.5162 2.33253 12.7715 1.48407Z" fill="#27346A"/>
<path d="M6.0208 4.1505C6.11364 4.10629 6.21518 4.08338 6.31801 4.08344H10.6305C11.1411 4.08344 11.6175 4.11668 12.0527 4.18673C12.1745 4.20615 12.2957 4.22933 12.416 4.25625C12.5866 4.2939 12.7553 4.33997 12.9213 4.3943C13.1353 4.46576 13.3346 4.54899 13.5177 4.64646C13.7336 3.26916 13.5162 2.33253 12.7715 1.48407C11.9514 0.54991 10.4704 0.149414 8.57506 0.149414H3.07387C2.68655 0.149414 2.35704 0.431391 2.29634 0.813712L0.00594395 15.3395C-0.0395817 15.6264 0.182224 15.8854 0.472082 15.8854H3.86851L5.63795 4.66457C5.65535 4.55428 5.69928 4.44987 5.76597 4.36032C5.83267 4.27077 5.92012 4.19876 6.0208 4.1505Z" fill="#27346A"/>
<path d="M13.4615 4.96863C12.7364 8.69303 10.2541 9.98122 7.08384 9.98122H5.46962C5.08236 9.98122 4.75527 10.2633 4.6951 10.6456L3.63407 17.3718C3.59442 17.6225 3.78829 17.8497 4.04191 17.8497H6.90462C7.0686 17.8496 7.22719 17.7911 7.35187 17.6846C7.47654 17.578 7.55911 17.4305 7.58474 17.2686L7.61262 17.1227L8.15216 13.7032L8.18693 13.5142C8.21255 13.3523 8.29512 13.2048 8.41978 13.0982C8.54444 12.9917 8.70301 12.9332 8.86699 12.9331H9.29542C12.0685 12.9331 14.24 11.8065 14.8745 8.54816C15.1394 7.18651 15.0023 6.04966 14.3017 5.25114C14.0891 5.00928 13.8252 4.80953 13.5178 4.64648C13.5011 4.75177 13.4831 4.85847 13.4615 4.96863Z" fill="#2790C3"/>
<path d="M12.7587 4.34352C12.6456 4.3105 12.5315 4.28127 12.4165 4.25588C12.2961 4.2294 12.1749 4.20637 12.0532 4.18682C11.6174 4.1163 11.1415 4.08301 10.6304 4.08301H6.31841C6.21551 4.08278 6.11389 4.10588 6.0212 4.15059C5.92041 4.19871 5.83286 4.27067 5.76613 4.36025C5.69941 4.44982 5.65553 4.55431 5.63829 4.66467L4.72178 10.4758L4.69531 10.6452C4.7556 10.2629 5.08263 9.98082 5.46995 9.98082H7.08417C10.2544 9.98082 12.7366 8.69316 13.4618 4.96823C13.4834 4.85806 13.5015 4.75131 13.5181 4.64608C13.3345 4.54915 13.1357 4.46539 12.9217 4.3944C12.8677 4.37649 12.8134 4.35953 12.7588 4.34352" fill="#1F264F"/>
</svg>
