<svg width="132" height="132" viewBox="0 0 132 132" fill="none" xmlns="http://www.w3.org/2000/svg">
<circle cx="66" cy="66" r="66" fill="#0D0A1C"/>
<path fill-rule="evenodd" clip-rule="evenodd" d="M66.0107 41C58.6757 41 52.7294 46.9716 52.7294 54.3379C52.7294 61.7043 58.6757 67.6759 66.0107 67.6759C73.3458 67.6759 79.292 61.7043 79.292 54.3379C79.292 46.9716 73.3458 41 66.0107 41ZM66.0107 44.6191C71.3554 44.6191 75.6882 48.9704 75.6882 54.3379C75.6882 59.7054 71.3554 64.0566 66.0107 64.0566C60.666 64.0566 56.3332 59.7054 56.3332 54.3379C56.3332 48.9704 60.666 44.6191 66.0107 44.6191ZM60.5751 73.0522C58.6308 73.1872 56.6655 73.4648 54.727 73.8802C50.9855 74.6509 47.9922 76.1908 46.7181 78.7497C46.2376 79.7505 45.996 80.822 46.0001 81.9068C45.9986 82.9838 46.2383 84.0567 46.7016 85.0382C47.9249 87.5677 50.5695 88.9992 54.1406 89.7927L54.7803 89.9262C56.6662 90.3517 58.6321 90.6382 60.6112 90.7726C60.7797 90.822 61.1815 90.868 61.6199 90.8904L61.9806 90.9039C62.166 90.9082 62.3765 90.9093 62.69 90.9093C65.5346 91.0657 68.4836 91.0202 71.4188 90.7703C72.983 90.6633 74.5578 90.4587 76.1193 90.159L77.2877 89.9164C81.1439 89.1557 84.0315 87.709 85.2965 85.0411C86.2344 83.0603 86.2344 80.7618 85.2969 78.7819C84.0351 76.1207 81.1843 74.686 77.2584 73.8773C75.7182 73.5484 74.153 73.3051 72.5767 73.1497L71.4243 73.0522C67.8148 72.7338 64.1846 72.7338 60.5751 73.0522ZM71.1089 76.6575L71.1406 76.66C72.9497 76.7873 74.7478 77.0412 76.5217 77.4199C79.4377 78.0207 81.4167 79.0166 82.0428 80.3369C82.5142 81.3325 82.5142 82.4894 82.0423 83.4859C81.4574 84.7196 79.68 85.6728 77.1112 86.2553L76.5488 86.3744C74.74 86.778 72.9479 87.0381 71.1439 87.1617C68.3449 87.3998 65.5624 87.4428 62.7869 87.2926L61.8029 87.2758C61.5298 87.2619 61.2996 87.2355 61.0862 87.1927C59.3968 87.0651 57.8767 86.8634 56.4007 86.5708L55.5194 86.3842C52.5943 85.8109 50.5979 84.8107 49.9506 83.4724C49.7241 82.9924 49.6031 82.4507 49.6039 81.9023C49.6018 81.357 49.7212 80.8275 49.953 80.3446C50.5823 79.081 52.698 77.9926 55.4652 77.4226C57.2519 77.0397 59.0491 76.7859 60.8574 76.6601C64.2901 76.3576 67.7093 76.3576 71.1089 76.6575Z" fill="white"/>
</svg>
