<svg width="30" height="30" viewBox="0 0 30 30" fill="none" xmlns="http://www.w3.org/2000/svg">
<path fill-rule="evenodd" clip-rule="evenodd" d="M13.0553 3C9.47929 3 6.60773 5.87113 6.60773 9.44762C6.60773 13.0233 9.47967 15.8952 13.0553 15.8952C16.6318 15.8952 19.503 13.0237 19.503 9.44762C19.503 5.87074 16.6322 3 13.0553 3ZM13.0553 4.81863C15.6278 4.81863 17.6843 6.87515 17.6843 9.44763C17.6843 12.0193 15.6274 14.0766 13.0553 14.0766C10.4841 14.0766 8.42633 12.0189 8.42633 9.44763C8.42633 6.8756 10.4836 4.81863 13.0553 4.81863ZM13.0553 18.1022C6.95686 18.1022 3.50513 19.2594 3.50513 22.5384C3.50513 25.8211 6.97217 27.0001 13.0553 27.0001L13.8355 26.9934C19.4459 26.8954 22.6055 25.6995 22.6055 22.5639C22.6055 19.3526 19.2875 18.1544 13.4483 18.1039L13.0553 18.1022ZM13.0553 19.9208C18.1492 19.9208 20.7869 20.8178 20.7869 22.5638C20.7869 24.2991 18.1557 25.1814 13.0553 25.1814C7.96138 25.1814 5.32373 24.2845 5.32373 22.5384C5.32373 20.8493 7.81326 19.9691 12.6471 19.9227L13.0553 19.9208ZM24.3631 10.1765C24.8234 10.1765 25.2039 10.5186 25.2641 10.9624L25.2724 11.0858V12.6073H26.8436C27.3458 12.6073 27.753 13.0144 27.753 13.5166C27.753 13.977 27.4109 14.3574 26.967 14.4176L26.8436 14.4259H25.2724V15.9476C25.2724 16.4498 24.8653 16.8569 24.3631 16.8569C23.9027 16.8569 23.5223 16.5148 23.4621 16.071L23.4538 15.9476V14.4259H21.8849C21.3827 14.4259 20.9756 14.0188 20.9756 13.5166C20.9756 13.0563 21.3176 12.6758 21.7615 12.6156L21.8849 12.6073H23.4538V11.0858C23.4538 10.5836 23.8609 10.1765 24.3631 10.1765Z" fill="white"/>
</svg>
