<svg width="30" height="30" viewBox="0 0 30 30" fill="none" xmlns="http://www.w3.org/2000/svg">
<path fill-rule="evenodd" clip-rule="evenodd" d="M14.9221 4.29688C11.7277 4.29688 9.16181 6.86275 9.16181 10.0572C9.16181 13.2526 11.7275 15.8186 14.9221 15.8186C18.1168 15.8186 20.6824 13.2526 20.6824 10.0572C20.6824 6.86275 18.1166 4.29688 14.9221 4.29688ZM14.9221 6.17188C17.081 6.17188 18.8074 7.89829 18.8074 10.0572C18.8074 12.2171 17.0812 13.9436 14.9221 13.9436C12.7631 13.9436 11.0368 12.2171 11.0368 10.0572C11.0368 7.89829 12.7632 6.17188 14.9221 6.17188ZM7.86241 5.47422C8.38018 5.47422 8.79991 5.89395 8.79991 6.41172C8.79991 6.92949 8.38018 7.34922 7.86241 7.34922C6.37695 7.34922 5.1722 8.55344 5.1722 10.0383C5.1722 11.5231 6.37695 12.7273 7.86241 12.7273C8.38018 12.7273 8.79991 13.1471 8.79991 13.6648C8.79991 14.1826 8.38018 14.6023 7.86241 14.6023C5.3416 14.6023 3.2972 12.5588 3.2972 10.0383C3.2972 7.51772 5.3416 5.47422 7.86241 5.47422ZM26.5587 10.0383C26.5587 7.51772 24.5143 5.47422 21.9935 5.47422C21.4757 5.47422 21.056 5.89395 21.056 6.41172C21.056 6.92949 21.4757 7.34922 21.9935 7.34922C23.479 7.34922 24.6837 8.55344 24.6837 10.0383C24.6837 11.5231 23.479 12.7273 21.9935 12.7273C21.4757 12.7273 21.056 13.1471 21.056 13.6648C21.056 14.1826 21.4757 14.6023 21.9935 14.6023C24.5143 14.6023 26.5587 12.5588 26.5587 10.0383ZM25.6197 16.9437C25.0195 16.8083 24.378 16.7156 23.7258 16.6707C23.2092 16.635 22.7616 17.0249 22.726 17.5414C22.6904 18.058 23.0802 18.5056 23.5968 18.5412C24.1549 18.5797 24.7019 18.6587 25.2338 18.7784C26.0609 18.9407 26.6001 19.2097 26.7339 19.4901C26.8346 19.7018 26.8346 19.9508 26.733 20.165C26.6009 20.4426 26.0662 20.7103 25.2508 20.878C24.7436 20.9823 24.417 21.4779 24.5213 21.9851C24.6256 22.4922 25.1213 22.8188 25.6284 22.7145C26.9762 22.4374 27.9635 21.9432 28.4266 20.9695C28.77 20.2455 28.77 19.4059 28.4267 18.6838C27.9602 17.7063 26.956 17.2053 25.6197 16.9437ZM7.12993 17.5414C7.09431 17.0249 6.64669 16.635 6.13015 16.6707C5.47791 16.7156 4.83645 16.8083 4.21048 16.9491L3.95243 17.0037C2.7679 17.2744 1.86421 17.7717 1.43044 18.6837C1.08563 19.4051 1.08563 20.2462 1.43081 20.9702C1.89196 21.9429 2.87918 22.4373 4.22749 22.7145C4.73464 22.8188 5.23032 22.4922 5.3346 21.9851C5.43889 21.4779 5.1123 20.9823 4.60515 20.878C3.79004 20.7104 3.25582 20.4428 3.12417 20.1652C3.02159 19.95 3.02159 19.7026 3.1229 19.4906C3.25664 19.2095 3.79534 18.9406 4.59644 18.7838L5.01297 18.6985C5.4282 18.6217 5.84054 18.5701 6.25915 18.5412C6.77569 18.5056 7.16555 18.058 7.12993 17.5414ZM6.45879 21.4807C6.45879 18.4983 9.54371 17.4494 14.9221 17.4494L15.3032 17.4512C20.4568 17.4996 23.3855 18.5509 23.3855 21.4589C23.3855 24.2985 20.586 25.3858 15.6746 25.4829L14.9221 25.4902C9.53138 25.4902 6.45879 24.4598 6.45879 21.4807ZM21.5105 21.4589C21.5105 20.0707 19.2848 19.3244 14.9221 19.3244C10.5637 19.3244 8.33379 20.0826 8.33379 21.4807C8.33379 22.869 10.5588 23.6152 14.9221 23.6152C19.2792 23.6152 21.5105 22.8563 21.5105 21.4589Z" fill="white"/>
</svg>
